<svg id="visual" viewBox="0 0 900 300" width="900" height="300" xmlns="http://www.w3.org/2000/svg" xmlns:xlink="http://www.w3.org/1999/xlink" version="1.1"><rect x="0" y="0" width="900" height="300" fill="#41beb8"></rect><path d="M0 71L25 71.7C50 72.3 100 73.7 150 73.8C200 74 250 73 300 82.8C350 92.7 400 113.3 450 116.5C500 119.7 550 105.3 600 97.7C650 90 700 89 750 87.3C800 85.7 850 83.3 875 82.2L900 81L900 301L875 301C850 301 800 301 750 301C700 301 650 301 600 301C550 301 500 301 450 301C400 301 350 301 300 301C250 301 200 301 150 301C100 301 50 301 25 301L0 301Z" fill="#f55058"></path><path d="M0 174L25 166.3C50 158.7 100 143.3 150 135.2C200 127 250 126 300 130.7C350 135.3 400 145.7 450 150.8C500 156 550 156 600 157C650 158 700 160 750 163.2C800 166.3 850 170.7 875 172.8L900 175L900 301L875 301C850 301 800 301 750 301C700 301 650 301 600 301C550 301 500 301 450 301C400 301 350 301 300 301C250 301 200 301 150 301C100 301 50 301 25 301L0 301Z" fill="#d0383c"></path><path d="M0 183L25 187.5C50 192 100 201 150 208.2C200 215.3 250 220.7 300 223.3C350 226 400 226 450 224C500 222 550 218 600 213.3C650 208.7 700 203.3 750 196C800 188.7 850 179.3 875 174.7L900 170L900 301L875 301C850 301 800 301 750 301C700 301 650 301 600 301C550 301 500 301 450 301C400 301 350 301 300 301C250 301 200 301 150 301C100 301 50 301 25 301L0 301Z" fill="#aa1f21"></path><path d="M0 262L25 261.7C50 261.3 100 260.7 150 261.7C200 262.7 250 265.3 300 262.3C350 259.3 400 250.7 450 250C500 249.3 550 256.7 600 256.3C650 256 700 248 750 248.8C800 249.7 850 259.3 875 264.2L900 269L900 301L875 301C850 301 800 301 750 301C700 301 650 301 600 301C550 301 500 301 450 301C400 301 350 301 300 301C250 301 200 301 150 301C100 301 50 301 25 301L0 301Z" fill="#860007"></path></svg>