<svg id="visual" viewBox="0 0 900 300" width="900" height="300" xmlns="http://www.w3.org/2000/svg" xmlns:xlink="http://www.w3.org/1999/xlink" version="1.1"><rect x="0" y="0" width="900" height="300" fill="#FFFFFF"></rect><path d="M0 59L25 62.8C50 66.7 100 74.3 150 81.2C200 88 250 94 300 103.2C350 112.3 400 124.7 450 122.8C500 121 550 105 600 96.2C650 87.3 700 85.7 750 87.2C800 88.7 850 93.3 875 95.7L900 98L900 301L875 301C850 301 800 301 750 301C700 301 650 301 600 301C550 301 500 301 450 301C400 301 350 301 300 301C250 301 200 301 150 301C100 301 50 301 25 301L0 301Z" fill="#77bbf3"></path><path d="M0 160L25 164.5C50 169 100 178 150 177.5C200 177 250 167 300 164C350 161 400 165 450 158C500 151 550 133 600 136.3C650 139.7 700 164.3 750 165.3C800 166.3 850 143.7 875 132.3L900 121L900 301L875 301C850 301 800 301 750 301C700 301 650 301 600 301C550 301 500 301 450 301C400 301 350 301 300 301C250 301 200 301 150 301C100 301 50 301 25 301L0 301Z" fill="#2494fe"></path><path d="M0 219L25 214.7C50 210.3 100 201.7 150 198.7C200 195.7 250 198.3 300 196.2C350 194 400 187 450 185.3C500 183.7 550 187.3 600 184.7C650 182 700 173 750 172.5C800 172 850 180 875 184L900 188L900 301L875 301C850 301 800 301 750 301C700 301 650 301 600 301C550 301 500 301 450 301C400 301 350 301 300 301C250 301 200 301 150 301C100 301 50 301 25 301L0 301Z" fill="#0064ff"></path><path d="M0 247L25 250.3C50 253.7 100 260.3 150 255C200 249.7 250 232.3 300 229C350 225.7 400 236.3 450 238.8C500 241.3 550 235.7 600 230C650 224.3 700 218.7 750 219.2C800 219.7 850 226.3 875 229.7L900 233L900 301L875 301C850 301 800 301 750 301C700 301 650 301 600 301C550 301 500 301 450 301C400 301 350 301 300 301C250 301 200 301 150 301C100 301 50 301 25 301L0 301Z" fill="#1a04fc"></path></svg>