<svg id="visual" viewBox="0 0 900 300" width="900" height="300" xmlns="http://www.w3.org/2000/svg" xmlns:xlink="http://www.w3.org/1999/xlink" version="1.1"><rect x="0" y="0" width="900" height="300" fill="#1e252c"></rect><path d="M0 114L25 107C50 100 100 86 150 86.7C200 87.3 250 102.7 300 113.2C350 123.7 400 129.3 450 122.2C500 115 550 95 600 88C650 81 700 87 750 88.8C800 90.7 850 88.3 875 87.2L900 86L900 301L875 301C850 301 800 301 750 301C700 301 650 301 600 301C550 301 500 301 450 301C400 301 350 301 300 301C250 301 200 301 150 301C100 301 50 301 25 301L0 301Z" fill="#f49f59"></path><path d="M0 161L25 152.2C50 143.3 100 125.7 150 122.7C200 119.7 250 131.3 300 138.2C350 145 400 147 450 154C500 161 550 173 600 177.3C650 181.7 700 178.3 750 175.2C800 172 850 169 875 167.5L900 166L900 301L875 301C850 301 800 301 750 301C700 301 650 301 600 301C550 301 500 301 450 301C400 301 350 301 300 301C250 301 200 301 150 301C100 301 50 301 25 301L0 301Z" fill="#e3873e"></path><path d="M0 231L25 222.5C50 214 100 197 150 190.8C200 184.7 250 189.3 300 196.5C350 203.7 400 213.3 450 215.8C500 218.3 550 213.7 600 208.2C650 202.7 700 196.3 750 193.3C800 190.3 850 190.7 875 190.8L900 191L900 301L875 301C850 301 800 301 750 301C700 301 650 301 600 301C550 301 500 301 450 301C400 301 350 301 300 301C250 301 200 301 150 301C100 301 50 301 25 301L0 301Z" fill="#d16f23"></path><path d="M0 261L25 261.7C50 262.3 100 263.7 150 264.7C200 265.7 250 266.3 300 259C350 251.7 400 236.3 450 234.8C500 233.3 550 245.7 600 249.7C650 253.7 700 249.3 750 249.8C800 250.3 850 255.7 875 258.3L900 261L900 301L875 301C850 301 800 301 750 301C700 301 650 301 600 301C550 301 500 301 450 301C400 301 350 301 300 301C250 301 200 301 150 301C100 301 50 301 25 301L0 301Z" fill="#bf5701"></path></svg>